<?xml version="1.0" encoding="UTF-8"?><svg id="Layer_2" xmlns="http://www.w3.org/2000/svg" xmlns:xlink="http://www.w3.org/1999/xlink" viewBox="0 0 411.59 422.44"><defs><style>.cls-1{fill:none;}.cls-2{clip-path:url(#clippath);}</style><clipPath id="clippath"><path class="cls-1" d="m178.09,0v119.4s-3.95,33.87,31.95,33.87h120.89l1.7,236.68-173.2,32.5L0,407.95,3.95,46.5,67.64,0h110.46Z"/></clipPath></defs><g id="Layer_1-2"><path d="m389.08,14.68h-173.29c-12.44,0-22.52,10.08-22.52,22.52v82.59c0,12.44,10.08,22.52,22.52,22.52h173.29c12.44,0,22.52-10.08,22.52-22.52V37.2c0-12.44-10.08-22.52-22.52-22.52Zm6.41,105.11c0,3.53-2.87,6.41-6.41,6.41h-173.29c-3.53,0-6.41-2.87-6.41-6.41V37.2c0-3.53,2.87-6.41,6.41-6.41h173.29c3.53,0,6.41,2.87,6.41,6.41v82.59Z"/><path d="m246.53,38.58c2.09,0,3.78,1.69,3.78,3.78s-1.69,3.78-3.78,3.78-3.78-1.7-3.78-3.78,1.69-3.78,3.78-3.78Z"/><path d="m246.53,110.93c2.09,0,3.78,1.69,3.78,3.78s-1.69,3.78-3.78,3.78-3.78-1.69-3.78-3.78,1.69-3.78,3.78-3.78Z"/><path d="m358.33,38.58c2.09,0,3.78,1.69,3.78,3.78s-1.69,3.78-3.78,3.78-3.78-1.7-3.78-3.78,1.69-3.78,3.78-3.78Z"/><path d="m358.33,110.93c2.09,0,3.78,1.69,3.78,3.78s-1.69,3.78-3.78,3.78-3.78-1.69-3.78-3.78,1.69-3.78,3.78-3.78Z"/><path d="m272.42,96.69h-7.37l-2.93-7.62h-13.41l-2.77,7.62h-7.19l13.07-33.56h7.16l13.44,33.56Zm-12.48-13.28l-4.62-12.45-4.53,12.45h9.16Z"/><path d="m276.2,96.69v-33.28h6.78v27.63h16.85v5.65h-23.62Z"/><path d="m304.65,96.69v-33.56h10.87c4.12,0,6.81.17,8.06.5,1.92.5,3.53,1.6,4.83,3.29,1.29,1.69,1.94,3.86,1.94,6.53,0,2.06-.37,3.79-1.12,5.2-.75,1.4-1.7,2.51-2.85,3.31-1.15.8-2.32,1.33-3.51,1.59-1.62.32-3.96.48-7.03.48h-4.42v12.66h-6.78Zm6.78-27.88v9.52h3.71c2.67,0,4.45-.18,5.35-.53s1.61-.9,2.12-1.65c.51-.75.77-1.62.77-2.61,0-1.22-.36-2.23-1.08-3.02s-1.63-1.29-2.73-1.49c-.81-.15-2.43-.23-4.87-.23h-3.27Z"/><path d="m335.94,96.69v-33.56h14.26c3.59,0,6.19.3,7.82.9,1.63.6,2.93,1.67,3.9,3.22s1.46,3.3,1.46,5.29c0,2.52-.74,4.6-2.22,6.24s-3.69,2.67-6.64,3.1c1.46.85,2.67,1.79,3.63,2.82.95,1.02,2.24,2.84,3.86,5.45l4.1,6.55h-8.1l-4.9-7.3c-1.74-2.61-2.93-4.25-3.57-4.93s-1.32-1.14-2.04-1.4c-.72-.25-1.86-.38-3.41-.38h-1.37v14.01h-6.78Zm6.78-19.37h5.01c3.25,0,5.28-.14,6.09-.41.81-.27,1.44-.75,1.9-1.42s.69-1.51.69-2.52c0-1.13-.3-2.04-.9-2.74-.6-.69-1.45-1.13-2.55-1.32-.55-.08-2.2-.11-4.94-.11h-5.29v8.52Z"/><g class="cls-2"><path d="m171.76,298.51c-50.84,0-98.42-8.2-137.64-23.84-7.35-2.91-12.13-9.83-12.13-17.68v-68.95c0-3.24,2.56-5.81,5.81-5.81s5.72,2.56,5.72,5.81v68.95c0,3.16,1.8,5.81,4.78,7,37.42,14.78,84.75,22.98,133.45,22.98s96.03-8.2,133.37-22.98c2.99-1.2,4.78-3.84,4.78-7v-68.95c0-3.24,2.56-5.81,5.81-5.81s5.72,2.56,5.72,5.81v68.95c0,7.86-4.78,14.78-12.13,17.68-39.22,15.64-86.81,23.84-137.56,23.84Z"/><path d="m171.76,227.34c-60.23,0-149.77-10.51-149.77-39.3,0-9.31,8.97-17.26,26.66-23.67,2.99-1.11,6.24.51,7.35,3.51,1.11,2.99-.43,6.24-3.42,7.35-14.1,5.04-19.05,10.08-19.05,12.81,0,9.66,47.5,27.77,138.24,27.77s138.15-18.11,138.15-27.77c0-2.73-4.96-7.77-18.97-12.81-2.99-1.11-4.61-4.36-3.5-7.35,1.11-2.99,4.36-4.62,7.43-3.51,17.6,6.41,26.57,14.35,26.57,23.67,0,28.79-89.54,39.3-149.68,39.3h0Z"/><path d="m171.76,402.57c-49.89,0-98.76-8.46-137.64-23.84-7.52-2.9-12.13-9.74-12.13-17.77v-68.95c0-3.24,2.56-5.81,5.81-5.81s5.72,2.56,5.72,5.81v68.95c0,3.25,1.8,5.89,4.78,7.09,37.59,14.78,85.01,22.98,133.45,22.98s95.77-8.2,133.37-22.98c2.99-1.2,4.78-3.84,4.78-7.09v-68.95c0-3.24,2.56-5.81,5.81-5.81s5.72,2.56,5.72,5.81v68.95c0,8.03-4.61,14.87-12.13,17.77-38.88,15.38-87.75,23.84-137.56,23.84h0Zm26.74-104.83h-53.48c-3.25,0-5.81-2.56-5.81-5.72s2.56-5.81,5.81-5.81h53.48c3.16,0,5.72,2.56,5.72,5.81s-2.56,5.72-5.72,5.72Z"/><path d="m171.76,331.32c-60.23,0-149.77-10.51-149.77-39.3,0-9.14,8.54-16.92,25.46-23.24,2.99-1.11,6.32.43,7.43,3.42,1.11,2.99-.43,6.32-3.42,7.43-14.18,5.3-17.94,10.25-17.94,12.39,0,9.66,47.5,27.77,138.24,27.77s138.15-18.11,138.15-27.77c0-2.13-3.76-7.09-17.94-12.39-2.99-1.11-4.53-4.44-3.42-7.43,1.11-2.99,4.44-4.53,7.43-3.42,16.92,6.32,25.46,14.1,25.46,23.24,0,28.79-89.54,39.3-149.68,39.3h0Z"/><path d="m171.76,193.77c-49.89,0-98.76-8.46-137.64-23.84-7.52-2.91-12.13-9.74-12.13-17.77v-68.95c0-3.25,2.56-5.81,5.81-5.81s5.72,2.56,5.72,5.81v68.95c0,3.24,1.8,5.89,4.78,7.09,37.59,14.78,84.93,22.98,133.45,22.98s95.77-8.2,133.37-22.98c2.99-1.2,4.78-3.85,4.78-7.09v-68.95c0-3.25,2.56-5.81,5.81-5.81s5.72,2.56,5.72,5.81v68.95c0,8.03-4.61,14.86-12.13,17.77-38.88,15.38-87.75,23.84-137.56,23.84Z"/><path d="m171.76,122.51c-60.23,0-149.77-10.51-149.77-39.3s89.54-39.39,149.77-39.39,149.69,10.51,149.69,39.39-89.54,39.3-149.69,39.3Zm0-67.15c-90.73,0-138.24,18.11-138.24,27.85s48.79,27.77,138.24,27.77,138.15-18.37,138.15-27.77c0-9.74-47.42-27.85-138.15-27.85Z"/></g></g></svg>